<?xml version="1.0" encoding="UTF-8"?>
<svg width="136px" height="136px" viewBox="0 0 136 136" version="1.1" xmlns="http://www.w3.org/2000/svg" xmlns:xlink="http://www.w3.org/1999/xlink">
    <!-- Generator: Sketch 55.1 (78136) - https://sketchapp.com -->
    <title>PowerCloudUpstreamLogoSVG</title>
    <desc>Created with Sketch.</desc>
    <defs>
        <linearGradient x1="-7.10978385%" y1="72.5503489%" x2="97.6254865%" y2="27.6224332%" id="linearGradient-1">
            <stop stop-color="#25A003" offset="0%"></stop>
            <stop stop-color="#0FB5F1" offset="100%"></stop>
        </linearGradient>
        <linearGradient x1="89.2616462%" y1="31.873192%" x2="-40.8539271%" y2="97.3985539%" id="linearGradient-2">
            <stop stop-color="#32C5FF" offset="0%"></stop>
            <stop stop-color="#6DD400" offset="100%"></stop>
        </linearGradient>
        <polygon id="path-3" points="55.5878152 15.5151202 7.49972342 6.11137321 12.09419 62.9085213"></polygon>
        <linearGradient x1="-80.2184195%" y1="139.825073%" x2="77.6966386%" y2="0%" id="linearGradient-5">
            <stop stop-color="#6DD400" offset="0%"></stop>
            <stop stop-color="#32C5FF" offset="100%"></stop>
        </linearGradient>
        <linearGradient x1="-110.223553%" y1="139.825073%" x2="84.0785419%" y2="0%" id="linearGradient-6">
            <stop stop-color="#6DD400" offset="0%"></stop>
            <stop stop-color="#32C5FF" offset="100%"></stop>
        </linearGradient>
        <linearGradient x1="-75.6132014%" y1="62.6846512%" x2="78.3731434%" y2="45.0811845%" id="linearGradient-7">
            <stop stop-color="#6DD400" offset="0%"></stop>
            <stop stop-color="#32C5FF" offset="100%"></stop>
        </linearGradient>
    </defs>
    <g id="PowerCloudUpstreamLogo" stroke="none" stroke-width="1" fill="none" fill-rule="evenodd">
        <g id="Group-3" transform="translate(4.000000, 25.000000)">
            <path d="M11.192919,85.1198412 L104.877023,84.6411431 C117.278443,75.2199688 123.479153,67.9729211 123.479153,62.9 C123.479153,57.8270789 117.278443,50.1595587 104.877023,39.8974393 C104.729501,37.964961 104.195739,36.4077101 103.275739,35.2256866 C101.895739,33.4526515 99.8221669,28.4413832 98.9779337,27.067385 C94.6686567,20.0539929 89.4364396,15.0252169 85.6573221,12.2071091 C79.8719859,7.89295346 73.131782,7.31944726 65.4367106,10.4865906 C64.1547723,8.68062465 60.7021704,9.25413084 55.0789048,12.2071091 C49.4556393,15.1600874 38.3427402,22.0842658 21.7402074,32.9796442 C18.8032141,36.9115226 16.2043829,40.6636639 13.9437138,44.236068 C11.6830446,47.8084721 9.03514005,53.0932627 6,60.0904398 L11.192919,85.1198412 Z" id="Path-5" fill="#000000"></path>
            <path d="M11.192919,85.1198412 C3.91333649,79.2629273 0.273545227,71.9375596 0.273545227,63.1437381 C0.273545227,54.3499166 4.43555682,47.6721739 12.75958,43.11051 C12.0174461,35.7730208 13.58765,30.3351148 17.4701917,26.7967922 C21.3527334,23.2584696 27.140569,22.4589125 34.8336985,24.398121 C41.1587614,8.79368948 52.5166539,1.72382567 68.9073759,3.18852953 C85.2980978,4.6532334 95.8229852,13.6966124 100.482038,30.3186666 L91.2645279,36.3054003 C86.1598957,20.4575089 77.7862221,12.2611882 66.143507,11.7164382 C54.5007919,11.1716882 45.8074172,17.8212059 40.0633826,31.6649913 C39.5743398,32.6085986 39.1163175,33.1776201 38.6893158,33.3720558 C38.2623142,33.5664915 37.4707041,33.5664915 36.3144856,33.3720558 C31.6326641,30.1707026 27.3381525,29.8951242 23.4309509,32.5453207 C21.0642441,34.1506226 20.6202165,36.4246925 20.3725845,39.7053387 C20.2651283,41.1289253 20.2651283,43.6755064 20.3725845,47.3450819 C16.5527718,48.6065225 14.0151037,49.8084664 12.75958,50.9509138 C10.0316754,53.433135 8.81071585,57.5392867 8.20534937,59.6085918 C7.18205118,63.1064997 8.45499061,68.5310393 12.0241677,75.8822107 L70.3466991,46.4617368 L11.192919,85.1198412 Z" id="Path-4" fill="url(#linearGradient-1)"></path>
            <path d="M52.4239017,77.4486559 L104.877023,77.4486559 C114.517574,74.7890726 119.33785,69.457923 119.33785,61.455207 C119.33785,53.452491 114.517574,48.4317154 104.877023,46.3928803 C99.9429378,46.0575006 96.7070113,45.7111361 95.169244,45.3537868 C93.6314766,44.9964374 92.3099012,43.9373564 91.2045178,42.1765436 L121.211944,20 L104.877023,38.7829673 C109.065701,40.1710501 112.189894,41.3022422 114.249603,42.1765436 C116.309311,43.0508451 118.630092,44.4562906 121.211944,46.3928803 C123.921391,49.3446127 125.593824,51.8368586 126.229244,53.8696179 C126.864664,55.9023772 127.212813,58.9193218 127.273692,62.9204517 C126.036646,70.1105216 124.016064,74.9532563 121.211944,77.4486559 C119.641448,78.8462479 116.981654,81.3667615 113.754415,82.8030374 C112.06442,83.5551665 109.105289,84.3274345 104.877023,85.1198412 L44.2735452,85.1198412 L52.4239017,77.4486559 Z" id="Path-3" fill="url(#linearGradient-2)"></path>
            <g id="Group" transform="translate(62.773545, 36.500000) rotate(2.000000) translate(-62.773545, -36.500000) translate(31.273545, 2.000000)">
                <mask id="mask-4" fill="white">
                    <use xlink:href="#path-3"></use>
                </mask>
                <g id="Triangle" transform="translate(31.543769, 34.509947) rotate(17.000000) translate(-31.543769, -34.509947) "></g>
                <path d="M52.0411012,47.339297 C51.6589501,47.2239956 51.2793812,47.0935569 50.9140138,46.9318773 C50.1542305,46.5956352 49.6100526,46.2874134 49.2195097,46.0207386 L49.2311292,46.0010923 C49.2892264,45.9002841 49.2546908,45.7714558 49.1536661,45.7131609 L48.7589273,45.4857788 C48.7676419,45.332151 48.6930837,45.1791673 48.5500999,45.0967172 L43.4901491,42.1816533 C43.347488,42.0995252 43.177392,42.1114419 43.048287,42.1958244 L42.5279935,41.8959764 C42.4269688,41.8376816 42.2978637,41.8724652 42.2394436,41.9732734 L42.1626261,42.1062887 L41.8395407,41.9201317 C41.809201,41.4869464 41.5706793,41.0756618 41.1652894,40.8421604 C40.7598994,40.608659 40.2838245,40.6080148 39.8926361,40.7983587 L39.5695506,40.6125238 L39.6576648,40.4605063 C39.7741822,40.25889 39.705111,40.0009111 39.5030615,39.8846435 L37.6362021,38.8092488 C37.7055961,38.4961958 37.7446503,38.1721925 37.7446503,37.838527 C37.7446503,37.5051836 37.7055961,37.1811803 37.6362021,36.8681273 L39.5030615,35.7927326 C39.705111,35.676465 39.7741822,35.4184862 39.6576648,35.2168698 L39.5695506,35.0648523 L39.8926361,34.8790174 C40.2838245,35.0693613 40.7598994,35.0687171 41.1652894,34.8352157 C41.5706793,34.6013922 41.809201,34.1904298 41.8395407,33.7572444 L42.1626261,33.5710874 L42.2394436,33.7041027 C42.2978637,33.8049109 42.4269688,33.8393725 42.5279935,33.7813997 L43.048287,33.4815517 C43.177392,33.5659342 43.347488,33.5778509 43.4901491,33.4957228 L48.5500999,30.5806589 C48.6930837,30.4982088 48.7676419,30.3452251 48.7589273,30.1915973 L49.1536661,29.9642152 C49.2546908,29.9059204 49.2892264,29.777092 49.2311292,29.6762838 L49.2195097,29.6566375 C49.6100526,29.3899628 50.1542305,29.0817409 50.9140138,28.7454988 C51.2793812,28.5838192 51.6589501,28.4533805 52.0411012,28.3380791 C53.1507593,28.0034475 53.7307639,27.5705841 54.0209276,27.156723 C54.6141654,26.3099986 53.9334589,25.1331515 52.9019093,25.2226872 C52.397754,25.2664888 51.7318945,25.5515216 50.8869018,26.3428498 C50.5957698,26.6156439 50.2926957,26.8784537 49.9696102,27.1132434 C49.297941,27.601825 48.7582818,27.9177766 48.3315895,28.1222916 L48.3202928,28.1023232 C48.2618728,28.001515 48.1327677,27.9670534 48.031743,28.0250262 L47.6370042,28.2527303 C47.5078991,28.1683478 47.3378032,28.1561091 47.1951421,28.2385592 L42.1351913,31.1536231 C41.9925302,31.2357512 41.9176492,31.3887349 41.9263638,31.5426848 L41.4060704,31.8422107 C41.3050456,31.9005055 41.27051,32.0293339 41.3289301,32.1301421 L41.4057476,32.2631574 L41.0829849,32.4493144 C40.6914738,32.2586484 40.2157215,32.2596146 39.8100088,32.493116 C39.4046189,32.7266174 39.1660973,33.1375799 39.1357576,33.5710874 L38.8129949,33.7569223 L38.7248806,33.6049048 C38.6083633,33.4032884 38.3498304,33.3343653 38.1481037,33.4506329 L36.2783394,34.5279601 C35.8000051,34.0909098 35.2303289,33.7524133 34.5967458,33.5530514 L34.5967458,31.4048384 C34.5967458,31.1719811 34.4076068,30.9832476 34.1742494,30.9832476 L33.9983437,30.9832476 L33.9983437,30.6112557 C34.3591924,30.3684142 34.5967458,29.9564855 34.5967458,29.4894827 C34.5967458,29.0224798 34.3591924,28.6105511 33.9983437,28.3677097 L33.9983437,27.9957178 L34.1523015,27.9957178 C34.2688189,27.9957178 34.3633883,27.901351 34.3633883,27.7850834 L34.3633883,27.1853873 C34.501208,27.1161421 34.5967458,26.975075 34.5967458,26.8104968 L34.5967458,20.9803691 C34.5967458,20.8157908 34.501208,20.6750458 34.3633883,20.6054785 L34.3633883,20.1507144 C34.3633883,20.0344468 34.2688189,19.94008 34.1523015,19.94008 L34.1293854,19.94008 C34.093236,19.4692123 34.0977546,18.8447168 34.1858689,18.0198932 C34.2281508,17.623746 34.3046455,17.2304974 34.3959874,16.8420799 C34.66033,15.7161199 34.5747979,14.9982239 34.3604835,14.5408832 C33.9224945,13.604623 32.5607587,13.604623 32.1224469,14.5408832 C31.9084553,14.9982239 31.8229232,15.7161199 32.0872658,16.8420799 C32.1782849,17.2304974 32.2547797,17.623746 32.2973843,18.0198932 C32.3854985,18.8447168 32.3900172,19.4692123 32.3538678,19.94008 L32.3309517,19.94008 C32.2141116,19.94008 32.1195421,20.0344468 32.1195421,20.1507144 L32.1195421,20.6054785 C31.9820452,20.6750458 31.8865074,20.8157908 31.8865074,20.9803691 L31.8865074,26.8104968 C31.8865074,26.975075 31.9820452,27.1161421 32.1195421,27.1853873 L32.1195421,27.7850834 C32.1195421,27.901351 32.2141116,27.9957178 32.3309517,27.9957178 L32.4849095,27.9957178 L32.4849095,28.3677097 C32.123738,28.6105511 31.8865074,29.0224798 31.8865074,29.4894827 C31.8865074,29.9564855 32.123738,30.3684142 32.4849095,30.6112557 L32.4849095,30.9832476 L32.3090038,30.9832476 C32.0756464,30.9832476 31.8865074,31.1719811 31.8865074,31.4048384 L31.8865074,33.5530514 C31.2529242,33.7524133 30.6829253,34.0909098 30.2049138,34.5279601 L28.3351495,33.4506329 C28.1331,33.3343653 27.8748899,33.4032884 27.7583725,33.6049048 L27.6702583,33.7569223 L27.3474956,33.5710874 C27.3171559,33.1375799 27.0783115,32.7266174 26.6729216,32.493116 C26.2675317,32.2596146 25.7914567,32.2586484 25.4002683,32.4493144 L25.0775056,32.2631574 L25.1543231,32.1301421 C25.2127432,32.0293339 25.1782076,31.9005055 25.0771828,31.8422107 L24.5568894,31.5426848 C24.5652812,31.3887349 24.490723,31.2357512 24.3480619,31.1536231 L19.2881111,28.2385592 C19.1451272,28.1561091 18.9753541,28.1683478 18.846249,28.2527303 L18.4515102,28.0250262 C18.3504855,27.9670534 18.2210577,28.001515 18.1629604,28.1023232 L18.1513409,28.1222916 C17.7246486,27.9177766 17.1849894,27.601825 16.5133202,27.1132434 C16.1905575,26.8784537 15.8874834,26.6156439 15.5960287,26.3428498 C14.7510359,25.5515216 14.0854992,25.2664888 13.5810211,25.2226872 C12.5497943,25.1331515 11.868765,26.3099986 12.4623256,27.156723 C12.7521665,27.5705841 13.3324939,28.0034475 14.4418293,28.3380791 C14.824303,28.4533805 15.203872,28.5838192 15.5692393,28.7454988 C16.3290227,29.0817409 16.8732006,29.3899628 17.2637435,29.6566375 L17.252124,29.6762838 C17.193704,29.777092 17.2285624,29.9059204 17.3295871,29.9642152 L17.7243259,30.1915973 C17.7156113,30.3452251 17.7901695,30.4982088 17.9331533,30.5806589 L22.9927813,33.4957228 C23.1357652,33.5778509 23.3058612,33.5659342 23.4349662,33.4815517 L23.9552597,33.7813997 C24.0562844,33.8393725 24.1853895,33.8049109 24.2434868,33.7041027 L24.3206271,33.5710874 L24.6433898,33.7572444 C24.6737295,34.1904298 24.9125739,34.6013922 25.3179638,34.8352157 C25.7233537,35.0687171 26.1994287,35.0693613 26.5906171,34.8790174 L26.9133798,35.0648523 L26.8255884,35.2168698 C26.7087483,35.4184862 26.7781422,35.676465 26.9801917,35.7927326 L28.8467284,36.8681273 C28.7776571,37.1811803 28.7386028,37.5051836 28.7386028,37.838527 C28.7386028,38.1721925 28.7776571,38.4961958 28.8467284,38.8092488 L26.9801917,39.8846435 C26.7781422,40.0009111 26.7087483,40.25889 26.8255884,40.4605063 L26.9133798,40.6125238 L26.5906171,40.7983587 C26.1994287,40.6080148 25.7233537,40.608659 25.3179638,40.8421604 C24.9125739,41.0756618 24.6737295,41.4869464 24.6433898,41.9201317 L24.3206271,42.1062887 L24.2434868,41.9732734 C24.1853895,41.8724652 24.0562844,41.8376816 23.9552597,41.8959764 L23.4349662,42.1958244 C23.3058612,42.1114419 23.1357652,42.0995252 22.9927813,42.1816533 L17.9331533,45.0967172 C17.7901695,45.1791673 17.7156113,45.332151 17.7243259,45.4857788 L17.3295871,45.7131609 C17.2285624,45.7714558 17.193704,45.9002841 17.252124,46.0010923 L17.2637435,46.0207386 C16.8732006,46.2874134 16.3290227,46.5956352 15.5692393,46.9318773 C15.203872,47.0935569 14.824303,47.2239956 14.4418293,47.339297 C13.3324939,47.6739287 12.7521665,48.106792 12.4623256,48.5206531 C11.868765,49.3673775 12.5497943,50.5442247 13.5810211,50.4546889 C14.0854992,50.4108873 14.7510359,50.1258545 15.5960287,49.3345263 C15.8874834,49.0617322 16.1905575,48.7989224 16.5133202,48.5641327 C17.1849894,48.0755511 17.7246486,47.7595995 18.1513409,47.5550845 L18.1629604,47.5750529 C18.2210577,47.6758611 18.3504855,47.7103227 18.4515102,47.6523499 L18.846249,47.4246458 C18.9753541,47.5090283 19.1451272,47.520945 19.2881111,47.4388169 L24.3480619,44.523753 C24.490723,44.4416249 24.5652812,44.2886413 24.5568894,44.1346914 L25.0771828,43.8351654 C25.1782076,43.7768706 25.2127432,43.6480422 25.1543231,43.547234 L25.0775056,43.4142187 L25.4002683,43.2280617 C25.7914567,43.4187277 26.2675317,43.4177615 26.6729216,43.1842601 C27.0783115,42.9507587 27.3171559,42.5397962 27.3474956,42.1062887 L27.6702583,41.9204538 L27.7583725,42.0724713 C27.8748899,42.2740877 28.1331,42.3430108 28.3351495,42.2267432 L30.2049138,41.149416 C30.6829253,41.5864663 31.2529242,41.9249628 31.8865074,42.1243247 L31.8865074,44.2725377 C31.8865074,44.505395 32.0756464,44.6941285 32.3090038,44.6941285 L32.4849095,44.6941285 L32.4849095,45.0661204 C32.123738,45.3089619 31.8865074,45.7208906 31.8865074,46.1878934 C31.8865074,46.6548963 32.123738,47.066825 32.4849095,47.3096664 L32.4849095,47.6816584 L32.3309517,47.6816584 C32.2141116,47.6816584 32.1195421,47.7760251 32.1195421,47.8922927 L32.1195421,48.4919888 C31.9820452,48.561234 31.8865074,48.7023011 31.8865074,48.8668793 L31.8865074,54.697007 C31.8865074,54.8615853 31.9820452,55.0023303 32.1195421,55.0718976 L32.1195421,55.5266617 C32.1195421,55.6429293 32.2141116,55.7372961 32.3309517,55.7372961 L32.3538678,55.7372961 C32.3900172,56.2081638 32.3854985,56.8326593 32.2973843,57.6574829 C32.2547797,58.0536301 32.1782849,58.4468787 32.0872658,58.8352962 C31.8229232,59.9612562 31.9084553,60.6791522 32.1224469,61.1364929 C32.5607587,62.0727531 33.9224945,62.0727531 34.3604835,61.1364929 C34.5747979,60.6791522 34.66033,59.9612562 34.3959874,58.8352962 C34.3046455,58.4468787 34.2281508,58.0536301 34.1858689,57.6574829 C34.0977546,56.8326593 34.093236,56.2081638 34.1293854,55.7372961 L34.1523015,55.7372961 C34.2688189,55.7372961 34.3633883,55.6429293 34.3633883,55.5266617 L34.3633883,55.0718976 C34.501208,55.0023303 34.5967458,54.8615853 34.5967458,54.697007 L34.5967458,48.8668793 C34.5967458,48.7023011 34.501208,48.561234 34.3633883,48.4919888 L34.3633883,47.8922927 C34.3633883,47.7760251 34.2688189,47.6816584 34.1523015,47.6816584 L33.9983437,47.6816584 L33.9983437,47.3096664 C34.3591924,47.066825 34.5967458,46.6548963 34.5967458,46.1878934 C34.5967458,45.7208906 34.3591924,45.3089619 33.9983437,45.0661204 L33.9983437,44.6941285 L34.1742494,44.6941285 C34.4076068,44.6941285 34.5967458,44.505395 34.5967458,44.2725377 L34.5967458,42.1243247 C35.2303289,41.9249628 35.8000051,41.5864663 36.2783394,41.149416 L38.1481037,42.2267432 C38.3498304,42.3430108 38.6083633,42.2740877 38.7248806,42.0724713 L38.8129949,41.9204538 L39.1357576,42.1062887 C39.1660973,42.5397962 39.4046189,42.9507587 39.8100088,43.1842601 C40.2157215,43.4177615 40.6914738,43.4187277 41.0829849,43.2280617 L41.4057476,43.4142187 L41.3289301,43.547234 C41.27051,43.6480422 41.3050456,43.7768706 41.4060704,43.8351654 L41.9263638,44.1346914 C41.9176492,44.2886413 41.9925302,44.4416249 42.1351913,44.523753 L47.1951421,47.4388169 C47.3378032,47.520945 47.5078991,47.5090283 47.6370042,47.4246458 L48.031743,47.6523499 C48.1327677,47.7103227 48.2618728,47.6758611 48.3202928,47.5750529 L48.3315895,47.5550845 C48.7582818,47.7595995 49.297941,48.0755511 49.9696102,48.5641327 C50.2926957,48.7989224 50.5957698,49.0617322 50.8869018,49.3345263 C51.7318945,50.1258545 52.397754,50.4108873 52.9019093,50.4546889 C53.9334589,50.5442247 54.6141654,49.3673775 54.0209276,48.5206531 C53.7307639,48.106792 53.1507593,47.6739287 52.0411012,47.339297" id="Fill-155" fill="url(#linearGradient-5)" mask="url(#mask-4)"></path>
                <path d="M32.7418598,50.2731501 C26.0859996,50.2731501 20.6900978,44.7137912 20.6900978,37.8559695 C20.6900978,30.9984844 26.0859996,25.4391255 32.7418598,25.4391255 C39.3980467,25.4391255 44.7939485,30.9984844 44.7939485,37.8559695 C44.7939485,44.7137912 39.3980467,50.2731501 32.7418598,50.2731501 Z M16.2418598,37.8559695 C16.2418598,47.2447501 23.6291296,54.8561378 32.7418598,54.8561378 C41.8545899,54.8561378 49.2418598,47.2447501 49.2418598,37.8559695 C49.2418598,28.467189 41.8545899,20.8561378 32.7418598,20.8561378 C23.6291296,20.8561378 16.2418598,28.467189 16.2418598,37.8559695 Z" id="Fill-162" fill="url(#linearGradient-6)" mask="url(#mask-4)"></path>
            </g>
            <path d="M52.8589048,66.125 L55.0789048,66.125 L55.0789048,67.445 L55.1539048,67.445 C55.2639054,67.0049978 55.5164029,66.6450014 55.9114048,66.365 C56.3064068,66.0849986 56.7589023,65.945 57.2689048,65.945 C58.2689098,65.945 59.0239023,66.2949965 59.5339048,66.995 C60.0439074,67.6950035 60.2989048,68.7149933 60.2989048,70.055 C60.2989048,71.3950067 60.0439074,72.4174965 59.5339048,73.1225 C59.0239023,73.8275035 58.2689098,74.18 57.2689048,74.18 C57.0089035,74.18 56.763906,74.1425004 56.5339048,74.0675 C56.3039037,73.9924996 56.0964058,73.8875007 55.9114048,73.7525 C55.7264039,73.6174993 55.5689055,73.4575009 55.4389048,73.2725 C55.3089042,73.0874991 55.2139051,72.890001 55.1539048,72.68 L55.0789048,72.68 L55.0789048,77 L52.8589048,77 L52.8589048,66.125 Z M56.5339048,72.38 C56.9539069,72.38 57.3014035,72.2325015 57.5764048,71.9375 C57.8514062,71.6424985 57.9889048,71.245 57.9889048,70.745 L57.9889048,69.38 C57.9889048,68.8799975 57.8514062,68.4825015 57.5764048,68.1875 C57.3014035,67.8924985 56.9539069,67.745 56.5339048,67.745 C56.1139027,67.745 55.7664062,67.847499 55.4914048,68.0525 C55.2164035,68.257501 55.0789048,68.5399982 55.0789048,68.9 L55.0789048,71.225 C55.0789048,71.5850018 55.2164035,71.867499 55.4914048,72.0725 C55.7664062,72.277501 56.1139027,72.38 56.5339048,72.38 Z M61.7617106,66.125 L63.9817106,66.125 L63.9817106,67.445 L64.0567106,67.445 C64.1667112,67.0049978 64.4192086,66.6450014 64.8142106,66.365 C65.2092126,66.0849986 65.6617081,65.945 66.1717106,65.945 C67.1717156,65.945 67.9267081,66.2949965 68.4367106,66.995 C68.9467132,67.6950035 69.2017106,68.7149933 69.2017106,70.055 C69.2017106,71.3950067 68.9467132,72.4174965 68.4367106,73.1225 C67.9267081,73.8275035 67.1717156,74.18 66.1717106,74.18 C65.9117093,74.18 65.6667118,74.1425004 65.4367106,74.0675 C65.2067095,73.9924996 64.9992115,73.8875007 64.8142106,73.7525 C64.6292097,73.6174993 64.4717113,73.4575009 64.3417106,73.2725 C64.21171,73.0874991 64.1167109,72.890001 64.0567106,72.68 L63.9817106,72.68 L63.9817106,77 L61.7617106,77 L61.7617106,66.125 Z M65.4367106,72.38 C65.8567127,72.38 66.2042092,72.2325015 66.4792106,71.9375 C66.754212,71.6424985 66.8917106,71.245 66.8917106,70.745 L66.8917106,69.38 C66.8917106,68.8799975 66.754212,68.4825015 66.4792106,68.1875 C66.2042092,67.8924985 65.8567127,67.745 65.4367106,67.745 C65.0167085,67.745 64.669212,67.847499 64.3942106,68.0525 C64.1192092,68.257501 63.9817106,68.5399982 63.9817106,68.9 L63.9817106,71.225 C63.9817106,71.5850018 64.1192092,71.867499 64.3942106,72.0725 C64.669212,72.277501 65.0167085,72.38 65.4367106,72.38 Z M73.8445164,74.18 C73.2545134,74.18 72.7295187,74.082501 72.2695164,73.8875 C71.8095141,73.692499 71.4245179,73.4175018 71.1145164,73.0625 C70.8045148,72.7074982 70.5695172,72.2750025 70.4095164,71.765 C70.2495156,71.2549974 70.1695164,70.6850031 70.1695164,70.055 C70.1695164,69.4249968 70.2495156,68.8575025 70.4095164,68.3525 C70.5695172,67.8474975 70.8045148,67.4150018 71.1145164,67.055 C71.4245179,66.6949982 71.8095141,66.4200009 72.2695164,66.23 C72.7295187,66.039999 73.2545134,65.945 73.8445164,65.945 C74.6445204,65.945 75.3120137,66.1249982 75.8470164,66.485 C76.3820191,66.8450018 76.7645152,67.3499967 76.9945164,68 L75.1945164,68.78 C75.124516,68.4799985 74.9795175,68.225001 74.7595164,68.015 C74.5395153,67.8049989 74.2345183,67.7 73.8445164,67.7 C73.3945141,67.7 73.0545175,67.8474985 72.8245164,68.1425 C72.5945152,68.4375015 72.4795164,68.8349975 72.4795164,69.335 L72.4795164,70.805 C72.4795164,71.3050025 72.5945152,71.6999985 72.8245164,71.99 C73.0545175,72.2800014 73.3945141,72.425 73.8445164,72.425 C74.2445184,72.425 74.5620152,72.3175011 74.7970164,72.1025 C75.0320176,71.8874989 75.2045158,71.6050017 75.3145164,71.255 L77.0395164,72.005 C76.7795151,72.7550037 76.3770191,73.3049982 75.8320164,73.655 C75.2870137,74.0050017 74.6245203,74.18 73.8445164,74.18 Z M81.7273221,74.18 C81.107319,74.18 80.5523246,74.082501 80.0623221,73.8875 C79.5723197,73.692499 79.1598238,73.4125018 78.8248221,73.0475 C78.4898205,72.6824982 78.234823,72.2450025 78.0598221,71.735 C77.8848213,71.2249974 77.7973221,70.6550031 77.7973221,70.025 C77.7973221,69.2949963 77.909821,68.6025033 78.1348221,67.9475 C78.3598233,67.2924967 78.6498204,66.6875028 79.0048221,66.1325 C79.3598239,65.5774972 79.7598199,65.0800022 80.2048221,64.64 C80.6498244,64.1999978 81.0973199,63.8300015 81.5473221,63.53 L84.6523221,63.53 C84.0123189,63.9900023 83.4373247,64.4274979 82.9273221,64.8425 C82.4173196,65.2575021 81.974824,65.6749979 81.5998221,66.095 C81.2248203,66.5150021 80.9148234,66.9424978 80.6698221,67.3775 C80.4248209,67.8125022 80.2523226,68.2799975 80.1523221,68.78 L80.2873221,68.825 C80.3773226,68.624999 80.4848215,68.4300009 80.6098221,68.24 C80.7348228,68.049999 80.8898212,67.8825007 81.0748221,67.7375 C81.2598231,67.5924993 81.4773209,67.4750004 81.7273221,67.385 C81.9773234,67.2949995 82.2673205,67.25 82.5973221,67.25 C83.0273243,67.25 83.4298203,67.3274992 83.8048221,67.4825 C84.179824,67.6375008 84.5048208,67.8549986 84.7798221,68.135 C85.0548235,68.4150014 85.2698214,68.757498 85.4248221,69.1625 C85.5798229,69.567502 85.6573221,70.0149975 85.6573221,70.505 C85.6573221,71.0450027 85.5648231,71.5399977 85.3798221,71.99 C85.1948212,72.4400022 84.9298239,72.8274984 84.5848221,73.1525 C84.2398204,73.4775016 83.8273245,73.7299991 83.3473221,73.91 C82.8673197,74.0900009 82.3273251,74.18 81.7273221,74.18 Z M81.7273221,72.425 C82.2273246,72.425 82.6173207,72.2875014 82.8973221,72.0125 C83.1773235,71.7374986 83.3173221,71.3450025 83.3173221,70.835 L83.3173221,70.565 C83.3173221,70.0549974 83.1773235,69.6625014 82.8973221,69.3875 C82.6173207,69.1124986 82.2273246,68.975 81.7273221,68.975 C81.2273196,68.975 80.8373235,69.1124986 80.5573221,69.3875 C80.2773207,69.6625014 80.1373221,70.0549974 80.1373221,70.565 L80.1373221,70.835 C80.1373221,71.3450025 80.2773207,71.7374986 80.5573221,72.0125 C80.8373235,72.2875014 81.2273196,72.425 81.7273221,72.425 Z M91.0051279,74 L91.0051279,71.99 L86.4001279,71.99 L86.4001279,70.07 L90.4801279,63.53 L93.1501279,63.53 L93.1501279,70.25 L94.4701279,70.25 L94.4701279,71.99 L93.1501279,71.99 L93.1501279,74 L91.0051279,74 Z M88.2001279,70.25 L91.0051279,70.25 L91.0051279,65.855 L90.8551279,65.855 L88.2001279,70.25 Z M97.9729337,74 C97.2129299,74 96.6554355,73.8150018 96.3004337,73.445 C95.9454319,73.0749981 95.7679337,72.5400035 95.7679337,71.84 L95.7679337,62.9 L97.9879337,62.9 L97.9879337,72.275 L98.9779337,72.275 L98.9779337,74 L97.9729337,74 Z M103.380739,74.18 C102.780736,74.18 102.245742,74.082501 101.775739,73.8875 C101.305737,73.692499 100.908241,73.4175018 100.583239,73.0625 C100.258238,72.7074982 100.01324,72.2750025 99.8482395,71.765 C99.6832386,71.2549974 99.6007395,70.6850031 99.6007395,70.055 C99.6007395,69.4349969 99.6807387,68.8725025 99.8407395,68.3675 C100.00074,67.8624975 100.238238,67.4300018 100.553239,67.07 C100.868241,66.7099982 101.255737,66.432501 101.715739,66.2375 C102.175742,66.042499 102.700737,65.945 103.290739,65.945 C103.940743,65.945 104.498237,66.0549989 104.963239,66.275 C105.428242,66.4950011 105.808238,66.7899981 106.103239,67.16 C106.398241,67.5300018 106.613239,67.9574976 106.748239,68.4425 C106.88324,68.9275024 106.950739,69.4349973 106.950739,69.965 L106.950739,70.625 L101.895739,70.625 L101.895739,70.745 C101.895739,71.2650026 102.035738,71.6774985 102.315739,71.9825 C102.595741,72.2875015 103.035736,72.44 103.635739,72.44 C104.095742,72.44 104.470738,72.3475009 104.760739,72.1625 C105.050741,71.9774991 105.320738,71.7550013 105.570739,71.495 L106.680739,72.875 C106.330738,73.285002 105.873242,73.6049988 105.308239,73.835 C104.743237,74.0650011 104.100739,74.18 103.380739,74.18 Z M103.335739,67.58 C102.885737,67.58 102.533241,67.7274985 102.278239,68.0225 C102.023238,68.3175015 101.895739,68.7099975 101.895739,69.2 L101.895739,69.32 L104.655739,69.32 L104.655739,69.185 C104.655739,68.7049976 104.548241,68.3175015 104.333239,68.0225 C104.118238,67.7274985 103.785742,67.58 103.335739,67.58 Z" id="ppc64le" fill="url(#linearGradient-7)" fill-rule="nonzero"></path>
        </g>
    </g>
</svg>